<?xml version="1.0" encoding="UTF-8"?>
<svg xmlns="http://www.w3.org/2000/svg" viewBox="15 21 243 38"><defs><style>.cls-1{fill:none;}.cls-1,.cls-2{stroke-width:0px;}.cls-3{clip-path:url(#clippath-4);}.cls-4{clip-path:url(#clippath-3);}.cls-5{clip-path:url(#clippath-7);}.cls-6{clip-path:url(#clippath-8);}.cls-7{clip-path:url(#clippath-6);}.cls-8{clip-path:url(#clippath-5);}.cls-9{isolation:isolate;opacity:.9;}</style><clipPath id="clippath-3"><rect class="cls-1" x="-497.79" y="-256.84" width="841.89" height="595.28"/></clipPath><clipPath id="clippath-4"><rect class="cls-1" x="17.21" y="22.44" width="26" height="28"/></clipPath><clipPath id="clippath-5"><rect class="cls-1" x="18.04" y="23.2" width="24.93" height="27.16"/></clipPath><clipPath id="clippath-6"><rect class="cls-1" x="-497.79" y="-262.85" width="841.89" height="595.28"/></clipPath><clipPath id="clippath-7"><rect class="cls-1" x="55.21" y="22.43" width="201" height="16"/></clipPath><clipPath id="clippath-8"><rect class="cls-1" x="55.92" y="22.98" width="199.93" height="14.86"/></clipPath></defs><g class="cls-4"><g class="cls-9"><g class="cls-3"><g class="cls-8"><path class="cls-2" d="m41.23,26.5c0,.37-.3.68-.68.68s-.68-.3-.68-.68.3-.68.68-.68.68.3.68.68"/><path class="cls-2" d="m21.21,43.25c0,.37-.3.68-.68.68s-.68-.3-.68-.68.3-.68.68-.68.68.3.68.68"/><path class="cls-2" d="m42.95,37.15c0-.12-.03-.15-.15-.09-.36.18-.72.36-1.08.56-.62.35-1.24.68-1.87,1.01-.43.22-.89.4-1.36.55-.52.17-1.06.27-1.61.33-.67.07-1.33.06-1.99-.02-.63-.08-1.25-.24-1.85-.48-.42-.17-.82-.35-1.21-.56-.65-.36-1.29-.73-1.93-1.1-.44-.25-.9-.47-1.38-.66-1.07-.43-2.2-.64-3.36-.66-.61-.01-1.2.03-1.8.11-1.01.14-1.95.47-2.85.9-.82.39-1.59.89-2.38,1.34-.08.05-.1.09-.1.17,0,.64,0,1.29,0,1.93,0,.04-.02.09.04.13.07-.07.17-.11.27-.16.16-.08.34-.14.5-.24.28-.18.58-.34.87-.51.25-.15.51-.28.76-.43.58-.36,1.21-.64,1.86-.87.3-.11.62-.18.94-.24.36-.07.73-.13,1.1-.15.65-.03,1.29-.01,1.93.1.62.11,1.21.29,1.79.52.31.13.61.29.91.44.34.17.68.35,1,.55.51.33,1.05.6,1.58.88.74.38,1.52.65,2.34.83.42.08.84.16,1.26.17.59.01,1.18.03,1.76-.02.5-.04.98-.12,1.46-.24.97-.23,1.88-.63,2.75-1.1.56-.31,1.12-.62,1.68-.92.09-.05.12-.1.12-.19,0-.62,0-1.25,0-1.87"/><path class="cls-2" d="m42.95,43.09c0-.65,0-1.3,0-1.94,0-.08-.02-.1-.1-.06-.49.23-.97.46-1.44.73-.57.33-1.14.65-1.72.94-.47.23-.98.39-1.49.54-.63.18-1.28.27-1.93.28-.92.02-1.82-.07-2.71-.35-.58-.19-1.12-.42-1.66-.71-.5-.26-.98-.57-1.48-.85-.3-.17-.59-.37-.91-.5-.36-.15-.71-.34-1.08-.48-.6-.23-1.22-.4-1.86-.51-.43-.07-.86-.11-1.29-.12-.84-.02-1.67.03-2.49.21-.38.08-.76.18-1.13.31-.29.1-.56.24-.85.35-.27.1-.52.24-.77.37-.53.27-1.01.62-1.55.88-.14.07-.26.16-.4.24-.07.04-.06.09-.06.15v1.94c0,.08,0,.12.11.07.46-.24.92-.47,1.36-.74.09-.05.11-.08.05-.18-.19-.33-.18-.67.03-.99.42-.66,1.46-.71,1.99-.1.28.32.46.68.57,1.07.13.45.18.91.22,1.37l-.09,1.28c-.08.41-.09.53-.21.93-.02.08,0,.09.07.12.54.21,1.1.35,1.68.44.23.03.22.04.28-.17.18-.69.24-1.1.29-1.81.08-1.25-.03-2.47-.62-3.61-.04-.07-.04-.11.06-.11.11,0,.22-.02.34-.03,1.3-.11,2.55.04,3.76.52.81.32,1.56.77,2.3,1.21.71.41,1.42.8,2.18,1.1.84-.31,1.69-.51,2.55-.58.35-.03.71-.05,1.06-.05.23,0,.46,0,.69.02.91.05,1.8.21,2.63.48.11.03.22.07.32.11.12-.05.24-.09.36-.14.29-.12.57-.25.85-.39.18-.09.36-.19.54-.3.48-.28.97-.54,1.46-.81.05-.03.08-.08.08-.13"/><path class="cls-2" d="m42.95,48.34c0-.35,0-.64,0-.92,0-.11,0-.19-.13-.25-.07-.04-.14-.06-.21-.1-.25-.15-.51-.29-.77-.43-.44-.24-.88-.5-1.33-.71-.36-.17-.73-.33-1.1-.47-.04-.01-.07-.03-.11-.04-.07-.02-.13-.05-.2-.07-.18-.06-.36-.11-.54-.15-.01,0-.02,0-.03,0-.61-.15-1.23-.24-1.85-.28-.22-.01-.44-.02-.65-.02-.33,0-.67.01-1,.04-1.2.11-2.32.45-3.39.98-.84.41-1.64.91-2.46,1.35-.04.02-.09.05-.13.07-1.09.59-2.24.97-3.5,1.05-1.55.1-3.01-.18-4.39-.88-.47-.24-.93-.5-1.39-.77-.27-.16-.53-.33-.81-.47-.24-.12-.48-.25-.72-.39-.05-.03-.07-.08-.14-.05-.07.03-.04.08-.04.13,0,.63,0,1.25,0,1.88,0,.1.04.16.12.19.22.09.4.23.61.34.3.16.58.35.88.51.47.27.95.49,1.44.72.48.22.99.39,1.51.51.51.12,1.03.21,1.55.22.55,0,1.11.06,1.67,0,.44-.04.86-.11,1.29-.2.8-.17,1.55-.45,2.28-.82.43-.22.87-.43,1.28-.68.29-.18.59-.35.88-.53.33-.19.67-.37,1.02-.53.51-.24,1.04-.41,1.59-.54.45-.1.9-.15,1.35-.19.47-.04.95-.03,1.42.04.36.05.73.1,1.09.18.67.15,1.31.41,1.92.71.48.23.94.51,1.4.77.31.17.61.35.93.51.2.1.4.21.61.28.06.02.12.02.11-.05-.05-.34,0-.67-.02-.95"/><path class="cls-2" d="m18.04,32.53c.22-.11.44-.2.64-.32.67-.4,1.35-.77,2.02-1.15.34-.2.7-.37,1.06-.52.53-.22,1.07-.39,1.65-.48.47-.07.95-.12,1.43-.14.31-.01.62.03.93.05.27.02.54.05.81.1.67.13,1.31.37,1.94.66.1.05.21.08.3.14.27.18.57.33.85.5.35.2.7.41,1.05.6.34.18.67.38,1.02.54.37.16.74.31,1.12.44.35.12.71.23,1.07.31.46.09.93.16,1.4.16.6,0,1.2.03,1.79-.03.52-.05,1.03-.15,1.53-.28,1.03-.27,1.97-.74,2.89-1.24.42-.23.84-.47,1.26-.7.1-.05.14-.11.14-.21,0-.58,0-1.15,0-1.72q0-.26-.24-.16s-.08.02-.11.04c-.65.35-1.29.7-1.93,1.06-.52.29-1.05.56-1.61.77-.13.05-.26.1-.38.14-.13.04-.27.09-.4.12-.53.15-1.08.23-1.63.27-1.04.07-2.06-.02-3.06-.33-.8-.25-1.54-.62-2.25-1.04-.72-.42-1.43-.85-2.18-1.21-1.45-.69-2.98-.99-4.59-.92-1.08.04-2.13.23-3.14.62-.71.28-1.38.62-2.04,1-.41.24-.82.49-1.22.73-.06.04-.1.07-.1.15,0,.68,0,1.36,0,2.05"/><path class="cls-2" d="m42.95,33.11c0-.13-.04-.14-.15-.09-.42.2-.84.41-1.25.64-.46.26-.92.52-1.4.76-.41.21-.81.4-1.24.57-.69.27-1.4.43-2.14.49-1.09.09-2.16,0-3.21-.32-.34-.1-.65-.24-.97-.38-.27-.12-.54-.26-.8-.4-.37-.2-.73-.41-1.08-.64-.19-.12-.41-.21-.62-.33-.34-.2-.69-.38-1.05-.54-.3-.14-.6-.27-.92-.36-.33-.1-.65-.21-.99-.28-.65-.15-1.3-.21-1.97-.24-.42-.01-.85.01-1.27.05-.69.07-1.37.19-2.02.41-.43.14-.85.3-1.26.5-.26.13-.53.24-.78.38-.2.11-.41.24-.61.36-.33.19-.64.43-1,.58-.12.05-.19.13-.18.28.02.29,0,.59,0,.88,0,.32,0,.65,0,.97,0,.11.03.13.13.08.22-.11.44-.21.65-.33.42-.24.82-.5,1.24-.73.33-.18.66-.36.98-.53.3-.16.61-.3.93-.42.85-.35,1.75-.49,2.67-.52.39-.01.78.02,1.17.05.53.05,1.05.15,1.55.32.73.24,1.42.56,2.07.95.41.25.84.49,1.26.73.2.11.42.2.61.32.28.18.59.31.89.44.35.15.71.27,1.08.37.4.11.81.2,1.22.26.39.05.78.07,1.17.07.65,0,1.3,0,1.93-.1.57-.1,1.13-.22,1.67-.43.31-.12.63-.21.93-.36.37-.19.75-.36,1.11-.58.49-.29,1-.55,1.5-.82.08-.04.11-.09.11-.17,0-.63,0-1.26,0-1.89"/><path class="cls-2" d="m42.95,27.54c0-.61,0-1.22,0-1.83,0-.17-.1-.22-.22-.28-.04-.02-.09-.03-.14-.06-.39-.22-.78-.44-1.18-.66-.39-.21-.77-.45-1.18-.62-.32-.13-.65-.27-.98-.38-.88-.29-1.79-.46-2.72-.51-.65-.03-1.31,0-1.96.08-.97.12-1.88.39-2.75.8-.74.34-1.43.76-2.12,1.16-.25.14-.5.28-.75.42-.63.35-1.3.63-2,.81-.72.19-1.45.25-2.19.23-.35,0-.71-.02-1.05-.07-.75-.12-1.47-.33-2.17-.65-.48-.22-.94-.47-1.4-.73-.65-.37-1.28-.77-1.96-1.09-.1-.05-.14-.06-.14.07,0,.64,0,1.29,0,1.93,0,.09.04.14.11.17.64.31,1.21.73,1.85,1.04.4.2.79.42,1.2.6.88-.33,1.75-.54,2.65-.62.35-.03.71-.05,1.06-.05.23,0,.46,0,.69.02.91.05,1.8.21,2.63.48.14.04.28.09.42.15.12-.05.23-.1.35-.15.87-.39,1.67-.9,2.49-1.37.75-.43,1.53-.8,2.37-1.03.63-.17,1.26-.25,1.91-.27.5-.02.99.02,1.48.09.06,0,.2-.02.11.13-.45.82-.63,1.71-.67,2.62-.05,1.03,0,1.72.26,2.72.03.12.09.14.19.12.58-.1,1.14-.21,1.68-.43.1-.04.13-.08.1-.18-.15-.53-.14-.75-.19-1.29,0-.32,0-.65,0-.97.02-.17.04-.33.06-.5.04-.26.11-.5.2-.74.09-.27.21-.52.38-.74.14-.18.31-.35.54-.45.46-.21,1.02-.14,1.38.16.31.26.51.76.25,1.22-.02.03-.03.06.01.08.08.05.16.12.25.16.32.17.67.3.98.49.04.03.09.06.14.04.06-.03.03-.09.03-.13"/></g></g></g></g><g class="cls-7"><g class="cls-9"><g class="cls-5"><g class="cls-6"><path class="cls-2" d="m66.38,24.69v2.37c-1.16-.97-2.35-1.45-3.59-1.45-1.36,0-2.51.49-3.44,1.47-.94.97-1.41,2.16-1.41,3.57s.47,2.56,1.41,3.52c.94.96,2.09,1.43,3.45,1.43.7,0,1.3-.11,1.79-.34.27-.11.56-.27.85-.46.29-.19.61-.43.93-.7v2.41c-1.15.65-2.35.97-3.61.97-1.89,0-3.51-.66-4.85-1.98-1.33-1.33-2-2.94-2-4.83,0-1.69.56-3.19,1.67-4.52,1.37-1.62,3.15-2.43,5.33-2.43,1.19,0,2.34.32,3.45.97"/><polygon class="cls-2" points="74.79 29.16 80.51 29.16 80.51 23.98 82.51 23.98 82.51 37.23 80.51 37.23 80.51 31.04 74.79 31.04 74.79 37.23 72.79 37.23 72.79 23.98 74.79 23.98 74.79 29.16"/><path class="cls-2" d="m96.99,34.01h-5.67l-1.48,3.22h-2.15l6.56-14.09,6.33,14.09h-2.19l-1.39-3.22Zm-.82-1.88l-1.97-4.51-2.06,4.51h4.03Z"/><path class="cls-2" d="m110.24,31.58l4.1,5.65h-2.45l-3.79-5.43h-.36v5.43h-2v-13.26h2.35c1.75,0,3.02.33,3.79.99.86.73,1.29,1.7,1.29,2.9,0,.94-.27,1.75-.81,2.42-.54.67-1.25,1.11-2.13,1.3m-2.49-1.52h.64c1.89,0,2.84-.72,2.84-2.17,0-1.36-.92-2.04-2.77-2.04h-.71v4.21Z"/><polygon class="cls-2" points="121.85 23.98 121.85 35.35 125.75 35.35 125.75 37.23 119.85 37.23 119.85 23.98 121.85 23.98"/><polygon class="cls-2" points="138.48 25.86 133.16 25.86 133.16 29.04 138.32 29.04 138.32 30.92 133.16 30.92 133.16 35.35 138.48 35.35 138.48 37.23 131.16 37.23 131.16 23.98 138.48 23.98 138.48 25.86"/><path class="cls-2" d="m152.12,25.95l-1.62.96c-.3-.53-.59-.87-.87-1.03-.29-.18-.66-.28-1.11-.28-.55,0-1.02.16-1.38.47-.37.31-.55.7-.55,1.17,0,.65.48,1.17,1.44,1.56l1.32.54c1.08.43,1.86.97,2.36,1.59.5.63.75,1.4.75,2.3,0,1.22-.41,2.23-1.22,3.02-.82.8-1.83,1.2-3.05,1.2-1.15,0-2.1-.34-2.85-1.02-.74-.68-1.2-1.64-1.38-2.88l2.03-.45c.09.78.25,1.32.48,1.61.41.57,1.01.86,1.8.86.62,0,1.14-.21,1.55-.63.41-.42.62-.95.62-1.59,0-.26-.04-.49-.11-.71-.07-.21-.18-.41-.33-.59-.15-.18-.35-.35-.59-.51-.24-.16-.53-.31-.86-.45l-1.28-.53c-1.82-.77-2.72-1.89-2.72-3.37,0-1,.38-1.83,1.14-2.5.76-.68,1.71-1.01,2.84-1.01,1.53,0,2.72.74,3.58,2.23"/><polygon class="cls-2" points="164.43 37.23 167.22 22.98 171.77 33.28 176.49 22.98 178.99 37.23 176.94 37.23 175.66 29.23 171.74 37.84 167.93 29.22 166.5 37.23 164.43 37.23"/><path class="cls-2" d="m187.32,23.98v7.98c0,1.14.19,1.97.56,2.5.55.76,1.34,1.14,2.34,1.14s1.8-.38,2.35-1.14c.37-.51.56-1.34.56-2.5v-7.98h2v8.53c0,1.4-.43,2.55-1.3,3.45-.98,1.01-2.18,1.51-3.61,1.51s-2.62-.5-3.6-1.51c-.87-.9-1.31-2.05-1.31-3.45v-8.53h2Z"/><path class="cls-2" d="m206.32,31.58l4.1,5.65h-2.45l-3.79-5.43h-.36v5.43h-2v-13.26h2.35c1.75,0,3.01.33,3.79.99.86.73,1.29,1.7,1.29,2.9,0,.94-.27,1.75-.81,2.42-.54.67-1.25,1.11-2.13,1.3m-2.49-1.52h.64c1.89,0,2.84-.72,2.84-2.17,0-1.36-.92-2.04-2.77-2.04h-.71v4.21Z"/><path class="cls-2" d="m222.45,30.33h5.48v.44c0,1-.12,1.88-.35,2.65-.23.71-.61,1.37-1.16,1.99-1.23,1.38-2.8,2.08-4.7,2.08s-3.45-.67-4.77-2.01c-1.32-1.35-1.98-2.96-1.98-4.84s.67-3.55,2.02-4.89c1.34-1.35,2.98-2.02,4.91-2.02,1.04,0,2,.21,2.9.63.86.42,1.7,1.11,2.53,2.06l-1.43,1.37c-1.09-1.45-2.41-2.17-3.97-2.17-1.4,0-2.58.48-3.53,1.45-.95.95-1.43,2.14-1.43,3.57s.53,2.69,1.59,3.65c.99.89,2.06,1.33,3.22,1.33.98,0,1.87-.33,2.65-1,.78-.67,1.22-1.47,1.31-2.4h-3.31v-1.88Z"/><path class="cls-2" d="m241.14,34.01h-5.67l-1.48,3.22h-2.15l6.56-14.09,6.33,14.09h-2.19l-1.39-3.22Zm-.82-1.88l-1.97-4.51-2.06,4.51h4.03Z"/><polygon class="cls-2" points="252.82 25.86 252.82 37.23 250.82 37.23 250.82 25.86 247.77 25.86 247.77 23.98 255.86 23.98 255.86 25.86 252.82 25.86"/></g></g></g></g><text x="57" y="48" font-family="Georgia, 'Times New Roman', serif" font-size="8.5" font-style="italic" fill="#1a1a1a" textLength="199" lengthAdjust="spacing">Pisciculture familiale depuis 1898</text></svg>
